<svg width="800" height="400" viewBox="0 0 800 400" xmlns="http://www.w3.org/2000/svg"><rect x="0" y="0" width="800" height="400" fill="#fff"></rect><path fill="black" d="M337.3 189.1L328.5 189.1Q328.2 186.5 326.3 185.1Q324.3 183.6 321.0 183.6L321.0 183.6Q318.7 183.6 317.2 184.3Q315.6 184.9 314.8 186.0Q314.0 187.1 314.0 188.5L314.0 188.5Q314.0 189.7 314.5 190.6Q315.0 191.4 316 192.1Q317.0 192.7 318.2 193.2Q319.5 193.6 320.9 193.9L320.9 193.9L324.8 194.9Q327.7 195.5 330.1 196.6Q332.4 197.6 334.2 199.2Q335.9 200.7 336.9 202.9Q337.9 205.0 337.9 207.7L337.9 207.7Q337.9 211.7 335.9 214.6Q333.9 217.6 330.1 219.2Q326.3 220.8 321.0 220.8L321.0 220.8Q315.7 220.8 311.8 219.2Q307.9 217.5 305.7 214.4Q303.5 211.2 303.4 206.5L303.4 206.5L312.3 206.5Q312.5 208.7 313.6 210.1Q314.7 211.6 316.6 212.3Q318.5 213.0 320.9 213.0L320.9 213.0Q323.2 213.0 324.9 212.4Q326.7 211.7 327.6 210.5Q328.6 209.3 328.6 207.7L328.6 207.7Q328.6 206.2 327.7 205.2Q326.9 204.2 325.2 203.5Q323.6 202.8 321.2 202.2L321.2 202.2L316.4 201.0Q310.9 199.7 307.7 196.8Q304.5 194.0 304.5 189.1L304.5 189.1Q304.5 185.2 306.7 182.2Q308.8 179.3 312.5 177.6Q316.3 175.9 321.1 175.9L321.1 175.9Q325.9 175.9 329.6 177.6Q333.2 179.3 335.2 182.2Q337.2 185.2 337.3 189.1L337.3 189.1ZM384.2 198.3L384.2 198.3Q384.2 205.5 381.5 210.5Q378.8 215.5 374.2 218.1Q369.5 220.8 363.7 220.8L363.7 220.8Q357.9 220.8 353.3 218.1Q348.7 215.5 346 210.5Q343.3 205.5 343.3 198.3L343.3 198.3Q343.3 191.2 346 186.2Q348.7 181.2 353.3 178.6Q357.9 175.9 363.7 175.9L363.7 175.9Q369.5 175.9 374.2 178.6Q378.8 181.2 381.5 186.2Q384.2 191.2 384.2 198.3ZM374.8 198.3L374.8 198.3Q374.8 193.7 373.5 190.5Q372.1 187.4 369.6 185.7Q367.1 184.1 363.7 184.1L363.7 184.1Q360.4 184.1 357.9 185.7Q355.4 187.4 354.0 190.5Q352.7 193.7 352.7 198.3L352.7 198.3Q352.7 203.0 354.0 206.1Q355.4 209.3 357.9 211.0Q360.4 212.6 363.7 212.6L363.7 212.6Q367.1 212.6 369.6 211.0Q372.1 209.3 373.5 206.1Q374.8 203.0 374.8 198.3ZM366.9 172.3L360.5 172.3L365.0 162.6L373.4 162.6L366.9 172.3ZM423.9 220.2L390.5 220.2L390.5 214.7L412.3 184.1L390.5 184.1L390.5 176.5L423.9 176.5L423.9 182.0L402.1 212.6L423.9 212.6L423.9 220.2ZM458.9 220.2L431.0 220.2L431.0 176.5L440.2 176.5L440.2 212.6L458.9 212.6L458.9 220.2ZM494.6 220.2L465.1 220.2L465.1 176.5L494.5 176.5L494.5 184.1L474.3 184.1L474.3 194.5L493.0 194.5L493.0 202.1L474.3 202.1L474.3 212.6L494.6 212.6L494.6 220.2Z "></path></svg>
